<?xml version="1.0" encoding="UTF-8" ?>
<!DOCTYPE svg PUBLIC "-//W3C//DTD SVG 1.1//EN" "http://www.w3.org/Graphics/SVG/1.1/DTD/svg11.dtd">
<svg width="40pt" height="40pt" viewBox="0 0 40 40" version="1.1" xmlns="http://www.w3.org/2000/svg">
<g id="#ffffffff">
<path fill="#ffffff" opacity="1.00" d=" M 6.00 6.00 C 7.33 6.00 8.67 6.00 10.00 6.00 C 10.00 7.33 10.00 8.67 10.00 10.00 C 8.67 10.00 7.33 10.00 6.00 10.00 C 6.00 8.67 6.00 7.33 6.00 6.00 Z" />
<path fill="#ffffff" opacity="1.00" d=" M 18.00 6.01 C 21.99 5.98 25.97 6.02 29.96 5.98 C 31.32 7.33 32.67 8.68 34.02 10.04 C 33.98 14.03 34.02 18.01 33.99 22.00 C 32.66 22.00 31.33 22.00 30.01 22.00 C 30.01 18.00 29.99 14.00 30.00 10.00 C 26.00 10.01 22.00 9.99 18.00 9.99 C 18.00 8.67 18.00 7.34 18.00 6.01 Z" />
<path fill="#ffffff" opacity="1.00" d=" M 14.00 14.00 C 15.33 14.00 16.66 14.00 17.99 14.00 C 18.00 15.33 18.00 16.67 18.00 18.00 C 16.67 18.00 15.33 18.00 14.00 17.99 C 14.00 16.66 14.00 15.33 14.00 14.00 Z" />
<path fill="#ffffff" opacity="1.00" d=" M 22.01 14.00 C 23.34 14.00 24.67 14.00 26.00 14.00 C 26.00 15.33 26.00 16.66 26.00 17.99 C 24.67 18.00 23.33 18.00 22.00 18.00 C 22.00 16.67 22.00 15.33 22.01 14.00 Z" />
<path fill="#ffffff" opacity="1.00" d=" M 6.01 18.00 C 7.34 18.00 8.67 18.00 9.99 18.00 C 9.99 22.00 10.01 26.00 10.00 30.00 C 14.00 29.99 18.00 30.01 22.00 30.01 C 22.00 31.33 22.00 32.66 22.00 33.99 C 18.00 34.01 14.01 33.99 10.01 34.01 C 8.67 32.66 7.33 31.32 5.99 29.99 C 6.01 25.99 5.98 22.00 6.01 18.00 Z" />
<path fill="#ffffff" opacity="1.00" d=" M 18.00 18.00 C 19.33 18.00 20.67 18.00 22.00 18.00 C 22.00 19.33 22.00 20.67 22.00 22.00 C 20.67 22.00 19.33 22.00 18.00 22.00 C 18.00 20.67 18.00 19.33 18.00 18.00 Z" />
<path fill="#ffffff" opacity="1.00" d=" M 14.00 22.01 C 15.33 22.00 16.67 22.00 18.00 22.00 C 18.00 23.33 18.00 24.67 17.99 26.00 C 16.66 26.00 15.33 26.00 14.00 26.00 C 14.00 24.67 14.00 23.34 14.00 22.01 Z" />
<path fill="#ffffff" opacity="1.00" d=" M 22.00 22.00 C 23.33 22.00 24.67 22.00 26.00 22.01 C 26.00 23.34 26.00 24.67 26.00 26.00 C 24.67 26.00 23.34 26.00 22.01 26.00 C 22.00 24.67 22.00 23.33 22.00 22.00 Z" />
<path fill="#ffffff" opacity="1.00" d=" M 30.00 30.00 C 31.33 30.00 32.66 30.00 34.00 30.00 C 34.00 31.33 34.00 32.67 34.00 34.00 C 32.67 34.00 31.33 34.00 30.00 34.00 C 30.00 32.67 30.00 31.33 30.00 30.00 Z" />
</g>
</svg>
